# AST/ASF file generated using VICON BodyLanguage
# -----------------------------------------------
:version 1.10
:name VICON
:units
  mass 1.0
  length 0.45
  angle deg
:documentation
   .ast/.asf automatically generated from VICON data using
   VICON BodyBuilder and BodyLanguage model FoxedUp or BRILLIANT.MOD
:root
   order TX TY TZ RX RY RZ
   axis XYZ
   position 0 0 0  
   orientation 0 0 0 
:bonedata
  begin
     id 1 
     name lhipjoint
     direction 0.630082 -0.636569 0.44472 
     length 2.82754 
     axis 0 0 0  XYZ
  end
  begin
     id 2 
     name lfemur
     direction 0.34202 -0.939693 0  
     length 7.26371  
     axis 0 0 20  XYZ
    dof rx ry rz
    limits (-160.0 20.0)
           (-70.0 70.0)
           (-60.0 70.0)
  end
  begin
     id 3 
     name ltibia
     direction 0.34202 -0.939693 0   
     length 7.88616   
     axis 0 0 20   XYZ
    dof rx
    limits (-10.0 170.0)
  end
  begin
     id 4 
     name lfoot
     direction 0.0603448 -0.165796 0.984312   
     length 1.77861   
     axis -90 7.62852e-016 20   XYZ
    dof rx rz
    limits (-45.0 90.0)
           (-70.0 20.0)
  end
  begin
     id 5 
     name ltoes
     direction 1.53577e-011 -4.21876e-011 1   
     length 0.902235   
     axis -90 7.62852e-016 20   XYZ
    dof rx
    limits (-90.0 20.0)
  end
  begin
     id 6 
     name rhipjoint
     direction -0.656778 -0.61817 0.431866   
     length 2.9117  
     axis 0 0 0  XYZ 
  end
  begin
     id 7 
     name rfemur
     direction -0.34202 -0.939693 0   
     length 6.81603   
     axis 0 0 -20   XYZ
    dof rx ry rz
    limits (-160.0 20.0)
           (-70.0 70.0)
           (-70.0 60.0)
  end
  begin
     id 8 
     name rtibia
     direction -0.34202 -0.939693 0   
     length 8.05997   
     axis 0 0 -20   XYZ
    dof rx
    limits (-10.0 170.0)
 end
 begin
     id 9 
     name rfoot
     direction -0.0862404 -0.236944 0.967688   
     length 1.84899  
     axis -90 -7.62852e-016 -20   XYZ
    dof rx rz
    limits (-45.0 90.0)
           (-20.0 70.0)
  end
  begin
     id 10 
     name rtoes
     direction -1.53561e-011 -4.21798e-011 1   
     length 0.931579   
     axis -90 -7.62852e-016 -20   XYZ
    dof rx
    limits (-90.0 20.0)
  end
  begin
     id 11 
     name lowerback
     direction -0.0110203 0.991769 -0.127564   
     length 2.05686   
     axis 0 0 0   XYZ
    dof rx ry rz
    limits (-20.0 45.0)
           (-30.0 30.0)
           (-30.0 30.0)
  end
  begin
     id 12 
     name upperback
     direction 0.0109719 0.99993 -0.00432479   
     length 2.06234   
     axis 0 0 0   XYZ
    dof rx ry rz
    limits (-20.0 45.0)
           (-30.0 30.0)
           (-30.0 30.0)
  end
  begin
     id 13 
     name thorax
     direction 0.0173308 0.998351 0.0547306   
     length 2.09856   
     axis 0 0 0   XYZ
    dof rx ry rz
    limits (-20.0 45.0)
           (-30.0 30.0)
           (-30.0 30.0)
  end
  begin
     id 14 
     name lowerneck
     direction -0.0311736 0.989033 0.144366   
     length 1.98151   
     axis 0 0 0   XYZ
    dof rx ry rz
    limits (-20.0 45.0)
           (-30.0 30.0)
           (-30.0 30.0)
  end
  begin
     id 15 
     name upperneck
     direction 0.0421057 0.975772 -0.214698   
     length 2.01457   
     axis 0 0 0   XYZ
    dof rx ry rz
    limits (-20.0 45.0)
           (-30.0 30.0)
           (-30.0 30.0)
  end
  begin
     id 16
     name head
     direction 0.0136911 0.995958 -0.0887718  
     length 2.03562  
     axis 0 0 0   XYZ
    dof rx ry rz
    limits (-20.0 45.0)
           (-30.0 30.0)
           (-30.0 30.0)
  end
  begin
     id 17 
     name lclavicle
     direction 0.915335 0.396201 0.0720134  
     length 4.16217  
     axis 0 0 0   XYZ
    dof ry rz
    limits (-20.0 10.0)
           (0.0 20.0)
  end
  begin
     id 18 
     name lhumerus
     direction 1 -4.48965e-011 6.383e-018   
     length 4.93042   
     axis -180 -30 -90   XYZ
    dof rx ry rz
    limits (-60.0 90.0)
           (-90.0 90.0)
           (-90.0 90.0)
  end
  begin
     id 19
     name lradius
     direction 1 -4.48972e-011 8.8689e-027   
     length 3.68177   
     axis -180 -30 -90   XYZ
    dof rx
    limits (-10.0 170.0)
  end
  begin
     id 20
     name lwrist
     direction 1 -4.48953e-011 1.17971e-026   
     length 1.84089   
     axis -7.69454e-015 90 90   XYZ
    dof ry
    limits (-180.0 0.0)
 end
  begin
     id 21 
     name lhand
     direction 1 -4.49027e-011 2.35802e-026   
     length 0.721479   
     axis -1.50533e-014 90 90   XYZ
    dof rx rz
    limits (-90.0 90.0)
           (-45.0 45.0)
  end
  begin
     id 22 
     name lfingers
     direction 1 -4.48915e-011 4.72027e-026   
     length 0.581675   
     axis -3.01059e-014 90 90   XYZ
    dof rx
    limits (0.0 90.0)
  end
  begin
     id 23
     name lthumb
     direction 0.707107 -6.34948e-011 0.707107   
     length 0.835172   
     axis -90 45 -5.12164e-014   XYZ
    dof rx rz
    limits (-45.0 45.0)
           (-45.0 45.0)
  end
  begin
     id 24 
     name rclavicle
     direction -0.882781 0.469197 0.0234974   
     length 3.95647  
     axis 0 0 0   XYZ 
    dof ry rz
    limits (-10.0 20.0)
           (-20.0 0.0)
  end
  begin
     id 25 
     name rhumerus
     direction -1 -4.48965e-011 -1.54906e-018  
     length 5.07905   
     axis -180 30 90   XYZ
    dof rx ry rz
    limits (-90.0 60.0)
           (-90.0 90.0)
           (-90.0 90.0)
  end
  begin
     id 26 
     name rradius
     direction -1 -4.48972e-011 5.47489e-027   
     length 3.54394   
     axis -180 30 90   XYZ
    dof rx
    limits (-10.0 170.0)
  end
  begin
     id 27 
     name rwrist
     direction -1 -4.48955e-011 1.17969e-026   
     length 1.77197   
     axis -7.69454e-015 -90 -90   XYZ
    dof ry
    limits (-180.0 0.0)
  end
  begin
     id 28
     name rhand
     direction -1 -4.48982e-011 2.35888e-026   
     length 0.681156   
     axis -1.50533e-014 -90 -90   XYZ
    dof rx rz
    limits (-90.0 90.0)
           (-45.0 45.0)
  end
  begin
     id 29
     name rfingers
     direction -1 -4.48955e-011 4.71877e-026   
     length 0.549165   
     axis -3.01059e-014 -90 -90   XYZ
    dof rx
    limits (0.0 90.0)
  end
  begin
     id 30
     name rthumb
     direction -0.707107 -6.3491e-011 0.707107   
     length 0.788495   
     axis -90 -45 5.12164e-014   XYZ
    dof rx rz
    limits (-45.0 45.0)
           (-45.0 45.0)
  end
:hierarchy
  begin
    root lhipjoint rhipjoint lowerback
    lhipjoint lfemur
    lfemur ltibia
    ltibia lfoot
    lfoot ltoes
    rhipjoint rfemur
    rfemur rtibia
    rtibia rfoot
    rfoot rtoes
    lowerback upperback
    upperback thorax
    thorax lowerneck lclavicle rclavicle
    lowerneck upperneck
    upperneck head
    lclavicle lhumerus
    lhumerus lradius
    lradius lwrist
    lwrist lhand lthumb
    lhand lfingers
    rclavicle rhumerus
    rhumerus rradius
    rradius rwrist
    rwrist rhand rthumb
    rhand rfingers
  end

#!OML:ASF H:\Bending\Project 1\Capture day 1\Session 1\Subject.ASF
:FULLY-SPECIFIED
:DEGREES
110
root -10.9697 18.0887 -16.3897 -100.558 88.6553 -109.46
lowerback 11.3055 -0.278079 2.22619
upperback 0.723494 0.0632709 1.66105
thorax -5.58813 0.0179572 0.472567
lowerneck -23.9023 -4.57632 -7.32792
upperneck 32.644 -4.45811 3.65326
head 15.879 -2.05412 1.96877
rclavicle -4.96962e-016 -1.31198e-014
rhumerus -28.884 7.02293 -82.6782
rradius 39.8825
rwrist 12.167
rhand -17.1745 -15.6911
rfingers 7.12502
rthumb 9.06693 -45.4762
lclavicle -4.96962e-016 -1.31198e-014
lhumerus -22.8692 8.26804 85.5404
lradius 26.1402
lwrist 16.6896
lhand -32.0808 6.50502
lfingers 7.12502
lthumb -5.32676 36.4181
rfemur -3.70151 -3.61684 12.9792
rtibia 3.97569e-015
rfoot -5.63761 -11.6921
rtoes -1.63775
lfemur -16.6111 -15.6954 -7.468
ltibia 20.8112
lfoot -19.2245 12.2772
ltoes -10.6084
111
root -11.0301 18.1035 -16.3921 -86.8524 88.6687 -96.3898
lowerback 12.0986 -0.251406 2.23115
upperback 1.00609 0.131886 1.68095
thorax -5.733 0.056535 0.480794
lowerneck -23.9801 -4.53033 -7.39364
upperneck 32.1411 -4.39308 3.70841
head 15.6538 -2.03437 2.00461
rclavicle 1.98785e-015 -7.15625e-015
rhumerus -27.2739 6.43503 -82.6162
rradius 39.4777
rwrist 12.9233
rhand -17.5339 -15.6533
rfingers 7.12502
rthumb 8.72019 -45.4532
lclavicle 1.98785e-015 -7.15625e-015
lhumerus -21.5645 8.002 85.5989
lradius 26.3437
lwrist 16.8301
lhand -32.0366 6.51287
lfingers 7.12502
lthumb -5.28408 36.427
rfemur -4.73895 -3.38746 13.0529
rtibia -7.95139e-015
rfoot -5.28863 -11.6712
rtoes -1.54117
lfemur -17.4944 -15.462 -7.1825
ltibia 20.8624
lfoot -19.0354 12.518
ltoes -10.4675
112
root -11.0963 18.1183 -16.3935 -74.3568 88.6222 -84.5937
lowerback 12.9553 -0.225028 2.23368
upperback 1.29221 0.201639 1.67318
thorax -5.90744 0.0956768 0.460157
lowerneck -24.0502 -4.47755 -7.38614
upperneck 31.5635 -4.34552 3.74798
head 15.3931 -2.01507 2.01613
rclavicle 1.98785e-015 -1.86858e-014
rhumerus -25.4108 5.39181 -82.5672
rradius 38.6996
rwrist 14.0025
rhand -17.8277 -15.4889
rfingers 7.12502
rthumb 8.43661 -45.3004
lclavicle 1.98785e-015 -1.86858e-014
lhumerus -20.2727 7.49565 85.6566
lradius 26.6904
lwrist 17.1053
lhand -31.9047 6.55504
lfingers 7.12502
lthumb -5.15668 36.4723
rfemur -5.86312 -3.1856 13.1272
rtibia 3.26007e-014
rfoot -4.87957 -11.6813
rtoes -1.86873
lfemur -18.4968 -15.0689 -6.89219
ltibia 20.9507
lfoot -18.7572 12.6252
ltoes -10.5155
113
root -11.1673 18.1326 -16.3944 -64.2561 88.5592 -75.2609
lowerback 13.8624 -0.198949 2.24001
upperback 1.57887 0.271815 1.62537
thorax -6.10655 0.134667 0.393781
lowerneck -24.1217 -4.42446 -7.28547
upperneck 30.9268 -4.32271 3.74755
head 15.1072 -2.0007 1.98889
rclavicle -2.5842e-015 1.19271e-014
rhumerus -23.4886 4.23676 -82.6043
rradius 37.815
rwrist 15.0742
rhand -18.1197 -15.2524
rfingers 7.12502
rthumb 8.15485 -45.0751
lclavicle -2.5842e-015 1.19271e-014
lhumerus -18.9791 6.70466 85.7043
lradius 27.1502
lwrist 17.5046
lhand -31.7248 6.59934
lfingers 7.12502
lthumb -4.98301 36.5207
rfemur -7.07005 -3.03573 13.1792
rtibia -2.78299e-015
rfoot -4.42642 -11.702
rtoes -2.55091
lfemur -19.6285 -14.4379 -6.64085
ltibia 21.0815
lfoot -18.3536 12.5199
ltoes -10.8114
114
root -11.2423 18.1456 -16.3957 -56.4952 88.522 -68.3298
lowerback 14.8226 -0.181464 2.23876
upperback 1.86692 0.330733 1.55078
thorax -6.33046 0.168377 0.303918
lowerneck -24.2337 -4.3661 -7.08662
upperneck 30.2613 -4.29752 3.65543
head 14.8161 -1.98717 1.90702
rclavicle -3.77691e-015 -5.96354e-015
rhumerus -21.6554 3.33347 -82.7399
rradius 37.0779
rwrist 15.8636
rhand -18.462 -15.0331
rfingers 7.12502
rthumb 7.82449 -44.8683
lclavicle -3.77691e-015 -5.96354e-015
lhumerus -17.6701 5.66354 85.7508
lradius 27.6871
lwrist 17.9913
lhand -31.5703 6.5921
lfingers 7.12502
lthumb -4.83387 36.517
rfemur -8.34587 -2.95847 13.1915
rtibia -1.74931e-014
rfoot -3.94591 -11.711
rtoes -3.44388
lfemur -20.8947 -13.5442 -6.469
ltibia 21.2739
lfoot -17.8189 12.1607
ltoes -11.3576
115
root -11.3207 18.156 -16.398 -50.8072 88.5257 -63.5118
lowerback 15.8579 -0.187784 2.21473
upperback 2.16256 0.359643 1.48659
thorax -6.58459 0.188937 0.242537
lowerneck -24.4415 -4.2844 -6.79556
upperneck 29.6008 -4.21541 3.40607
head 14.5421 -1.96175 1.75668
rclavicle -4.96962e-015 -3.77691e-014
rhumerus -19.9653 2.93308 -82.93
rradius 36.6419
rwrist 16.2457
rhand -18.8646 -14.9317
rfingers 7.12502
rthumb 7.43582 -44.781
lclavicle -4.96962e-015 -3.77691e-014
lhumerus -16.3418 4.46985 85.8136
lradius 28.2771
lwrist 18.5138
lhand -31.5202 6.48527
lfingers 7.12502
lthumb -4.78542 36.4112
rfemur -9.6646 -2.96201 13.1712
rtibia -3.06128e-014
rfoot -3.4453 -11.6963
rtoes -4.40213
lfemur -22.2922 -12.4315 -6.38794
ltibia 21.5631
lfoot -17.1886 11.5565
ltoes -12.0653
116
root -11.4025 18.1625 -16.402 -47.5122 88.5523 -61.091
lowerback 17.006 -0.233564 2.16561
upperback 2.47526 0.343223 1.47955
thorax -6.87902 0.19028 0.265367
lowerneck -24.7863 -4.15459 -6.42502
upperneck 28.9648 -4.01841 2.94917
head 14.2984 -1.90843 1.53229
rclavicle 6.75868e-015 2.54444e-014
rhumerus -18.3791 3.08176 -83.1044
rradius 36.5234
rwrist 16.2715
rhand -19.2892 -15.0139
rfingers 7.12502
rthumb 7.02601 -44.8773
lclavicle 6.75868e-015 2.54444e-014
lhumerus -15.0052 3.2407 85.9055
lradius 28.9162
lwrist 19.0184
lhand -31.6225 6.25768
lfingers 7.12502
lthumb -4.88427 36.1814
rfemur -10.9886 -3.03676 13.157
rtibia 3.73715e-014
rfoot -2.9193 -11.6598
rtoes -5.33165
lfemur -23.8042 -11.2006 -6.36441
ltibia 21.9911
lfoot -16.53 10.7667
ltoes -12.763
117
root -11.4877 18.1637 -16.4073 -47.527 88.5585 -61.9393
lowerback 18.3113 -0.326758 2.11017
upperback 2.81255 0.280722 1.56586
thorax -7.22797 0.172965 0.403601
lowerneck -25.2652 -3.95707 -5.9934
upperneck 28.3456 -3.67416 2.28108
head 14.0814 -1.81592 1.24329
rclavicle -1.41137e-014 -2.54444e-014
rhumerus -16.8068 3.64143 -83.2065
rradius 36.626
rwrist 16.0908
rhand -19.6692 -15.2704
rfingers 7.12502
rthumb 6.65912 -45.1457
lclavicle -1.41137e-014 -2.54444e-014
lhumerus -13.6837 2.06152 86.022
lradius 29.6166
lwrist 19.4632
lhand -31.8687 5.92218
lfingers 7.12502
lthumb -5.12198 35.8403
rfemur -12.2729 -3.15606 13.2093
rtibia 1.11319e-014
rfoot -2.35629 -11.6151
rtoes -6.20981
lfemur -25.3937 -9.97631 -6.32726
ltibia 22.5865
lfoot -15.915 9.88588
ltoes -13.2627
118
root -11.5755 18.1593 -16.4134 -51.2077 88.4897 -66.3714
lowerback 19.8094 -0.461566 2.08005
upperback 3.17479 0.191244 1.7532
thorax -7.64664 0.146406 0.647258
lowerneck -25.8183 -3.68976 -5.52578
upperneck 27.7072 -3.19757 1.46117
head 13.8698 -1.6847 0.916553
rclavicle 1.82882e-014 5.00937e-014
rhumerus -15.1672 4.39549 -83.219
rradius 36.8106
rwrist 15.8328
rhand -19.9462 -15.6064
rfingers 7.12502
rthumb 6.3918 -45.4899
lclavicle 1.82882e-014 5.00937e-014
lhumerus -12.405 0.952823 86.1388
lradius 30.392
lwrist 19.8281
lhand -32.1924 5.51684
lfingers 7.12502
lthumb -5.43448 35.4272
rfemur -13.4753 -3.28361 13.382
rtibia -5.60573e-014
rfoot -1.75048 -11.5779
rtoes -7.06341
lfemur -27.0032 -8.86816 -6.19876
ltibia 23.3434
lfoot -15.3933 9.0211
ltoes -13.4555
119
root -11.6647 18.1499 -16.4192 -56.9471 88.3025 -72.7571
lowerback 21.5077 -0.618337 2.09997
upperback 3.55436 0.108393 2.01548
thorax -8.14243 0.12627 0.949629
lowerneck -26.3458 -3.3738 -5.05495
upperneck 27.0025 -2.65226 0.600756
head 13.6325 -1.52886 0.591613
rclavicle 9.14409e-015 -1.59028e-015
rhumerus -13.4336 5.15725 -83.1641
rradius 36.97
rwrist 15.5429
rhand -20.0997 -15.8748
rfingers 7.12502
rthumb 6.24355 -45.7628
lclavicle 9.14409e-015 -1.59028e-015
lhumerus -11.184 -0.125781 86.218
lradius 31.24
lwrist 20.1194
lhand -32.4967 5.0873
lfingers 7.12502
lthumb -5.72833 34.9899
rfemur -14.5698 -3.38442 13.6938
rtibia -8.54774e-015
rfoot -1.11318 -11.5574
rtoes -7.91754
lfemur -28.5657 -7.94407 -5.93195
ltibia 24.2135
lfoot -14.9825 8.26669
ltoes -13.3647
120
root -11.7528 18.1373 -16.4241 -62.074 88.0022 -78.4346
lowerback 23.3635 -0.769075 2.16676
upperback 3.94098 0.0658524 2.30255
thorax -8.69927 0.127737 1.25022
lowerneck -26.7498 -3.0494 -4.62024
upperneck 26.1954 -2.12968 -0.170638
head 13.3426 -1.37173 0.310177
rclavicle -1.47101e-014 -3.02153e-014
rhumerus -11.633 5.82715 -83.0791
rradius 37.063
rwrist 15.2059
rhand -20.1577 -15.9445
rfingers 7.12502
rthumb 6.18758 -45.8342
lclavicle -1.47101e-014 -3.02153e-014
lhumerus -10.0021 -1.24231 86.2233
lradius 32.1287
lwrist 20.3705
lhand -32.6981 4.67178
lfingers 7.12502
lthumb -5.92272 34.569
rfemur -15.5611 -3.43615 14.1105
rtibia 3.58806e-014
rfoot -0.47503 -11.5519
rtoes -8.74784
lfemur -30.0292 -7.22194 -5.53744
ltibia 25.1174
lfoot -14.6723 7.68759
ltoes -13.1434
